<svg width="63" height="60" viewBox="0 0 63 60" fill="none" xmlns="http://www.w3.org/2000/svg">
<path d="M0 36C0 37.1045 0.940204 38 2.1 38H25.2C25.7799 38 26.25 37.5523 26.25 36.9999C26.25 36.4477 25.7799 36 25.2 36H2.1V12.9999C2.1 12.4477 1.6299 12 1.05 12C0.470101 12 0 12.4477 0 12.9999V36Z" fill="white"/>
<path d="M0 7.99997C0 8.55229 0.470101 9 1.05 9C1.6299 9 2.1 8.55229 2.1 7.99997V2H54.6V15C54.6 15.5523 55.0701 16 55.65 16C56.2299 16 56.7 15.5523 56.7 15V2C56.7 0.895429 55.7598 0 54.6 0H2.1C0.940204 0 0 0.895429 0 2V7.99997Z" fill="white"/>
<path d="M6.29951 7C6.87941 7 7.34951 6.55229 7.34951 6C7.34951 5.44772 6.87941 5 6.29951 5C5.71961 5 5.24951 5.44772 5.24951 6C5.24951 6.55229 5.71961 7 6.29951 7Z" fill="white"/>
<path d="M10.4999 7C11.0798 7 11.55 6.55229 11.55 6C11.55 5.44772 11.0798 5 10.4999 5C9.92009 5 9.44995 5.44772 9.44995 6C9.44995 6.55229 9.92009 7 10.4999 7Z" fill="white"/>
<path d="M14.6996 7C15.2795 7 15.7497 6.55229 15.7497 6C15.7497 5.44772 15.2795 5 14.6996 5C14.1198 5 13.6497 5.44772 13.6497 6C13.6497 6.55229 14.1198 7 14.6996 7Z" fill="white"/>
<path d="M5.55767 24.7068C5.9677 25.0972 6.63235 25.0972 7.04238 24.7068L13.65 18.4139L17.1076 21.7069C17.5177 22.0972 18.1823 22.0972 18.5924 21.7069L26.25 14.4139L29.7076 17.7068C30.1177 18.0972 30.7823 18.0972 31.1924 17.7068L39.9 9.41388L43.3577 12.7069C43.7677 13.0972 44.4323 13.0972 44.8424 12.7069L51.1424 6.70686C51.4153 6.45579 51.5248 6.08399 51.4287 5.73435C51.3326 5.38473 51.0459 5.11168 50.6788 5.02016C50.3117 4.92865 49.9213 5.03291 49.6577 5.29286L44.1 10.5859L40.6424 7.29286C40.2323 6.90248 39.5677 6.90248 39.1576 7.29286L30.45 15.5858L26.9923 12.2929C26.5824 11.9025 25.9177 11.9025 25.5077 12.2929L17.85 19.5859L14.3923 16.2929C13.9824 15.9025 13.3177 15.9025 12.9077 16.2929L5.55767 23.2928C5.14777 23.6834 5.14777 24.3164 5.55767 24.7068Z" fill="white"/>
<path d="M45.1501 15C38.8899 14.9944 33.0851 18.1155 29.8559 23.2232C26.6267 28.331 26.4461 34.6772 29.3802 39.944L25.4553 43.683C25.0444 44.0735 25.0438 44.7072 25.4537 45.0985C25.8637 45.4898 26.5291 45.4904 26.94 45.1L30.5099 41.7C31.7212 43.3533 33.2294 44.79 34.9652 45.944L23.2293 57.123C21.997 58.2861 20.0114 58.2884 18.7762 57.128C17.5438 55.9554 17.541 54.0539 18.7699 52.878L23.2324 48.638C23.631 48.2462 23.6263 47.6224 23.2218 47.2361C22.8173 46.8498 22.1624 46.8435 21.7498 47.222L17.2811 51.468C15.2368 53.4245 15.2401 56.5874 17.2884 58.54C19.3435 60.4823 22.6589 60.4823 24.7139 58.54L36.8089 47.019C43.3716 50.3333 51.4034 49.4305 56.9755 44.7521C62.5476 40.0738 64.4951 32.5979 61.8654 25.9816C59.2356 19.3652 52.5784 14.9916 45.1501 15ZM45.1501 47C36.4516 47 29.4001 40.2843 29.4001 32C29.4001 23.7157 36.4516 17 45.1501 17C53.8486 17 60.9001 23.7157 60.9001 32C60.8903 40.2804 53.8445 46.9907 45.1501 47Z" fill="white"/>
<path d="M41.716 20.4571C36.3011 21.9294 32.5631 26.637 32.5505 32.0001C32.5505 32.5524 33.0206 33.0001 33.6005 33.0001C34.1804 33.0001 34.6506 32.5524 34.6506 32.0001C34.6603 27.5321 37.774 23.6099 42.2851 22.3831C42.6464 22.2863 42.9259 22.0133 43.0185 21.6669C43.1111 21.3205 43.0026 20.9534 42.7339 20.7039C42.4652 20.4543 42.0772 20.3603 41.716 20.4571Z" fill="white"/>
</svg>
