<svg width="41" height="73" viewBox="0 0 41 73" fill="none" xmlns="http://www.w3.org/2000/svg">
<path d="M13.1038 26.1223C13.1029 26.6756 13.5767 27.1247 14.1602 27.1238C14.7437 27.1247 15.2166 26.6763 15.2166 26.1223C15.2166 25.57 14.7428 25.1208 14.1602 25.1208C13.5758 25.1208 13.1029 25.5691 13.1038 26.1223Z" fill="white"/>
<path d="M14.2388 29.1282C13.6568 29.1702 13.221 29.6515 13.2653 30.2032C13.4022 31.9038 13.702 35.0733 14.1711 37.1967C14.2906 37.7383 14.8507 38.0856 15.4219 37.9719C15.9953 37.8579 16.3586 37.3257 16.2396 36.7861C15.7783 34.6989 15.4795 31.3808 15.3729 30.051C15.3285 29.4993 14.8206 29.0863 14.2388 29.1282Z" fill="white"/>
<path d="M15.2166 20.1115C15.2157 22.8796 17.5781 25.1209 20.4992 25.1202C23.4202 25.1209 25.7834 22.881 25.7823 20.1115C25.7823 17.3435 23.4199 15.1033 20.4997 15.1033C17.5801 15.1033 15.2166 17.3429 15.2166 20.1115ZM23.6692 20.1117C23.6689 20.112 23.6689 20.112 23.6689 20.112C23.6695 21.773 22.2534 23.1171 20.4992 23.1165C18.7471 23.1171 17.3294 21.7741 17.3302 20.1117C17.3302 18.4507 18.7474 17.1071 20.4997 17.1069C22.2511 17.1069 23.6689 18.4504 23.6692 20.1117Z" fill="white"/>
<path d="M21.557 71.3495L21.5568 62.4931C21.557 61.9399 21.0839 61.4912 20.5 61.4912C19.9166 61.4915 19.4437 61.9399 19.4434 62.4931V71.3493C19.4434 71.9027 19.9166 72.3513 20.5003 72.3513C21.0839 72.351 21.5568 71.9027 21.557 71.3495Z" fill="white"/>
<path d="M29.0288 64.2652L29.0284 55.4089C29.0284 54.8559 28.5553 54.4073 27.9718 54.407C27.3882 54.4073 26.9153 54.8556 26.9148 55.4091V64.2652C26.9151 64.8185 27.3882 65.2671 27.9718 65.2673C28.5555 65.2668 29.0284 64.8185 29.0288 64.2652Z" fill="white"/>
<path d="M13.0286 65.2673C13.6121 65.267 14.085 64.8186 14.0853 64.2654V55.4092C14.0853 54.8558 13.6121 54.4072 13.0286 54.4075C12.4447 54.4075 11.9719 54.8558 11.9719 55.4092V64.2654C11.9716 64.8186 12.4447 65.2673 13.0286 65.2673Z" fill="white"/>
<path d="M21.2867 0.976324C21.0865 0.763789 20.7999 0.642577 20.4992 0.642578C20.1985 0.642578 19.911 0.763512 19.7117 0.976324C16.126 4.7776 8.87568 15.1016 8.87568 26.1235C8.87568 28.4902 9.02302 30.8693 9.31062 33.2064C3.73385 36.7561 0.421911 42.6236 0.422119 49.0126C0.422119 50.8075 0.686002 52.5858 1.20648 54.2991C1.49991 55.2641 2.94564 55.2594 3.2373 54.2994C4.57533 49.9036 7.71912 46.2231 11.9448 44.0529C12.312 44.9467 12.7034 45.7623 13.1143 46.4846C13.575 47.2976 14.4282 47.8437 15.4066 47.9781C15.3655 48.3354 15.3442 48.6977 15.3442 49.063C15.3442 52.7098 19.6404 57.5245 19.8234 57.7279C20.2245 58.1735 20.94 58.1981 21.3743 57.7863C21.3939 57.7677 21.4128 57.7481 21.4309 57.7282C21.6137 57.525 25.9114 52.7101 25.9116 49.063C25.9116 48.6827 25.8886 48.3055 25.8442 47.9341C26.7304 47.7437 27.4698 47.2166 27.8841 46.4863C28.2953 45.7632 28.6867 44.947 29.0543 44.0529C33.2796 46.2228 36.4237 49.9036 37.7617 54.2994C38.0577 55.2724 39.5032 55.2491 39.7922 54.2988C40.3129 52.5858 40.5768 50.8075 40.5768 49.0126C40.5768 42.6238 37.2646 36.7561 31.6881 33.2067C31.9756 30.8691 32.123 28.49 32.123 26.1233C32.123 20.6975 30.4519 15.0025 27.1566 9.19573C25.5567 6.28417 22.903 2.68961 21.2867 0.976324ZM2.59446 50.4052C2.55512 49.9433 2.53525 49.4784 2.53556 49.0126C2.53525 43.632 5.16241 38.6651 9.63163 35.4513C10.0298 37.8689 10.5757 40.1432 11.2383 42.1395C7.4929 43.9862 4.48137 46.885 2.59446 50.4052ZM23.7983 49.063C23.7983 51.0112 21.9289 53.8107 20.6267 55.4648C19.3252 53.8123 17.4575 51.0156 17.4575 49.063C17.4575 48.707 17.4827 48.3557 17.5309 48.0111H23.7244C23.7729 48.3554 23.798 48.7067 23.7983 49.063ZM26.0232 45.5362C25.8605 45.8226 25.5062 46.0075 25.1203 46.0075C22.9859 46.0075 16.8997 46.0075 15.8787 46.0075C15.4925 46.0077 15.1382 45.8224 14.9749 45.5348C14.585 44.8496 14.2119 44.067 13.8616 43.2003C15.968 42.4038 18.1958 42.0003 20.4989 41.9997C22.8026 42.0003 25.0304 42.4038 27.1367 43.2003C26.7865 44.067 26.4135 44.8502 26.0232 45.5362ZM38.4634 49.0126C38.4634 49.4786 38.4436 49.943 38.4039 50.4052C36.5173 46.8847 33.5058 43.9859 29.7604 42.1392C30.4227 40.1432 30.9685 37.8689 31.3668 35.4513C35.8366 38.6651 38.4631 43.632 38.4634 49.0126ZM30.0097 26.1233C30.0094 31.0113 29.3388 36.6128 27.8218 41.3032C25.4957 40.4367 23.0379 39.9968 20.4989 39.9962C17.9602 39.997 15.5027 40.4367 13.1769 41.3035C11.6599 36.613 10.989 31.0113 10.989 26.1235C10.989 21.1916 12.4777 15.9922 15.4152 10.6602H25.5832C28.521 15.9919 30.0094 21.1916 30.0097 26.1233ZM24.4137 8.65637L16.5848 8.65636C18.1269 6.15991 19.6229 4.25789 20.4992 3.21347C21.3755 4.25789 22.8718 6.15964 24.4137 8.65637Z" fill="white"/>
</svg>
