<svg width="39" height="60" viewBox="0 0 39 60" fill="none" xmlns="http://www.w3.org/2000/svg">
<path d="M34.5002 7.31341C34.2012 6.92705 33.6403 6.85263 33.2476 7.14689C32.8549 7.44103 32.7792 7.99275 33.0784 8.379C35.3553 11.3187 36.5587 14.8316 36.5587 18.5376C36.5587 22.4353 35.1696 26.2326 32.647 29.2298C32.2401 29.7132 31.8088 30.2294 31.4012 30.7567L28.8456 34.063C27.4408 35.8804 26.4193 37.9068 25.8032 40.0961H23.6788V39.2966C23.6788 38.4945 23.2772 37.7447 22.6046 37.2914C22.4184 37.1659 22.3072 36.9584 22.3072 36.7364V35.0136H23.5151C25.1669 35.0136 26.5108 33.6917 26.5108 32.067C26.5108 30.4424 25.167 29.1206 23.5151 29.1206C21.8633 29.1206 20.5194 30.4424 20.5194 32.067V33.2553H18.48V32.067C18.48 30.4423 17.1362 29.1206 15.4843 29.1206C13.8325 29.1206 12.4886 30.4425 12.4886 32.0671C12.4886 33.6919 13.8325 35.0136 15.4843 35.0136H16.6923V36.7364C16.6923 36.9584 16.5812 37.1659 16.3951 37.2914C15.7223 37.7446 15.3207 38.4945 15.3207 39.2966V40.0961H13.1962C12.5803 37.9068 11.5586 35.8804 10.1539 34.063L7.55102 30.6956C7.15346 30.1812 6.73575 29.6833 6.37546 29.2569C3.81976 26.2331 2.42247 22.398 2.44096 18.4582C2.46207 13.9709 4.27919 9.75475 7.5577 6.58627C10.8383 3.41564 15.1594 1.70576 19.7257 1.7599C23.6405 1.80982 27.3064 3.12748 30.327 5.57072C30.7083 5.87927 31.2715 5.82514 31.5851 5.45001C31.8987 5.07501 31.8437 4.52096 31.4624 4.21252C28.1723 1.55142 24.0123 0.0558769 19.7487 0.00173625C14.7053 -0.0656465 9.92799 1.83033 6.30469 5.33201C2.68361 8.83158 0.676514 13.4904 0.653276 18.4501C0.632846 22.8026 2.17673 27.0397 5.00064 30.3809C5.34892 30.7931 5.75201 31.2736 6.12788 31.7598L8.73074 35.1271C9.90427 36.6454 10.7799 38.3261 11.3441 40.1348C10.6586 40.2881 10.1451 40.8911 10.1451 41.611V45.0156C10.1451 45.8188 10.7846 46.4765 11.589 46.5258V47.6808C11.589 48.1665 11.9892 48.56 12.4828 48.56C12.9764 48.56 13.3766 48.1665 13.3766 47.6808V46.5306H25.6224V51.5765L23.7384 53.9746H15.2605L13.374 51.5734C13.3394 51.1188 12.9537 50.7605 12.4827 50.7605C11.9891 50.7605 11.5889 51.154 11.5889 51.6396C11.5889 51.9856 11.7073 52.3272 11.9228 52.6015L13.9027 55.1216C14.1508 55.4374 14.5169 55.6459 14.9135 55.7099C15.0343 58.0954 17.045 60 19.4999 60C21.9547 60 23.9654 58.0956 24.0858 55.7099C24.4824 55.6459 24.8486 55.4374 25.0968 55.1215L27.0768 52.6012C27.2919 52.3271 27.4104 51.9856 27.4104 51.6395V46.5256C28.2149 46.4765 28.8544 45.8188 28.8544 45.0154V41.6109C28.8544 40.891 28.3408 40.2879 27.6554 40.1347C28.2197 38.3261 29.0953 36.6453 30.2688 35.127L32.8244 31.8207C33.2113 31.3201 33.6292 30.8201 34.0241 30.3507C36.8115 27.0388 38.3464 22.8434 38.3464 18.5374C38.3464 14.4433 37.0165 10.562 34.5002 7.31341ZM22.3073 32.0671C22.3073 31.412 22.8491 30.879 23.5152 30.879C24.1814 30.879 24.7232 31.412 24.7232 32.0673C24.7232 32.7224 24.1814 33.2554 23.5152 33.2554H22.3073V32.0671ZM19.4999 58.2417C18.0391 58.2417 16.8355 57.1373 16.7069 55.7328H22.2926C22.1642 57.1373 20.9607 58.2417 19.4999 58.2417ZM17.1085 39.2966C17.1085 39.0747 17.2195 38.8673 17.4057 38.7418C18.0784 38.2883 18.48 37.5386 18.48 36.7364V35.0136H20.5194V36.7364C20.5194 37.5386 20.9211 38.2882 21.5939 38.7418C21.78 38.8673 21.8911 39.0747 21.8911 39.2966V40.0961H17.1083V39.2966H17.1085ZM15.4845 33.2554C14.8183 33.2554 14.2765 32.7225 14.2765 32.0671C14.2765 31.412 14.8183 30.879 15.4845 30.879C16.1506 30.879 16.6924 31.412 16.6924 32.0671V33.2554H15.4845ZM27.0668 44.7722H11.933V41.8545H27.0668V44.7722Z" fill="white"/>
</svg>
