<svg width="69" height="58" viewBox="0 0 69 58" fill="none" xmlns="http://www.w3.org/2000/svg">
<path d="M54.6648 12.4812L44.9207 2.73711C44.7519 2.57395 44.5266 2.48197 44.2918 2.48022H22.1461C21.442 2.48233 20.7673 2.76299 20.2693 3.2609C19.7714 3.75883 19.4907 4.43354 19.4886 5.1377V10.497C14.7172 10.7206 10.2152 12.7735 6.91751 16.2293C3.61988 19.6851 1.78003 24.2783 1.78003 29.055C1.78003 33.8318 3.61988 38.4249 6.91751 41.8808C10.2152 45.3366 14.7172 47.3894 19.4886 47.6131V52.9723C19.4907 53.6765 19.7714 54.3512 20.2693 54.8492C20.7673 55.347 21.442 55.6278 22.1461 55.6298H52.2642C52.9684 55.6278 53.6431 55.347 54.141 54.8492C54.6389 54.3512 54.9196 53.6765 54.9217 52.9723V13.1101C54.9199 12.8753 54.828 12.6501 54.6648 12.4812ZM45.1776 5.50089L51.901 12.2243H46.0634C45.8285 12.2243 45.6032 12.131 45.4371 11.9649C45.271 11.7987 45.1776 11.5734 45.1776 11.3385V5.50089ZM3.54376 29.055C3.54952 24.7466 5.20533 20.6041 8.17088 17.4787C11.1364 14.3533 15.1865 12.4826 19.4886 12.2509V28.6918L7.88431 40.2962C5.09086 37.2187 3.54347 33.2113 3.54376 29.055ZM9.13332 41.5452L20.7377 29.9409H37.1786C37.0172 33.115 35.9587 36.1782 34.126 38.7747C32.2932 41.3713 29.7615 43.3946 26.8248 44.6098C23.888 45.8249 20.6668 46.182 17.5352 45.6395C14.4037 45.097 11.4902 43.6773 9.13332 41.5452ZM53.1501 52.9723C53.1501 53.2072 53.0567 53.4326 52.8906 53.5987C52.7245 53.7648 52.4991 53.8582 52.2642 53.8582H22.1461C21.9112 53.8582 21.6859 53.7648 21.5198 53.5987C21.3536 53.4326 21.2603 53.2072 21.2603 52.9723V47.6131C26.0302 47.3827 30.5289 45.328 33.8265 41.8739C37.1239 38.4197 38.9679 33.8304 38.9768 29.055C38.9768 28.8201 38.8835 28.5948 38.7174 28.4287C38.5513 28.2626 38.3259 28.1692 38.091 28.1692H21.2603V5.1377C21.2603 4.90277 21.3536 4.67745 21.5198 4.51133C21.6859 4.3452 21.9112 4.25188 22.1461 4.25188H43.406V11.3385C43.408 12.0426 43.6887 12.7174 44.1866 13.2153C44.6846 13.7132 45.3593 13.9939 46.0634 13.996H53.1501V52.9723Z" fill="white"/>
<path d="M23.9173 6.90942C23.6824 6.90942 23.4571 7.00275 23.291 7.16888C23.1248 7.335 23.0315 7.56032 23.0315 7.79525V25.5118C23.0315 25.7467 23.1248 25.972 23.291 26.1381C23.4571 26.3043 23.6824 26.3976 23.9173 26.3976H41.6339C41.8688 26.3976 42.0941 26.3043 42.2602 26.1381C42.4263 25.972 42.5197 25.7467 42.5197 25.5118C42.5143 20.5798 40.5526 15.8513 37.0653 12.3638C33.5778 8.87643 28.8493 6.91482 23.9173 6.90942ZM24.8031 24.626V8.70765C28.9526 8.93046 32.8733 10.6791 35.8117 13.6174C38.75 16.5558 40.4987 20.4765 40.7215 24.626H24.8031Z" fill="white"/>
<path d="M43.4055 36.1418C41.8287 36.1418 40.2873 36.6095 38.9763 37.4855C37.6652 38.3615 36.6434 39.6066 36.04 41.0634C35.4366 42.5202 35.2787 44.1232 35.5863 45.6697C35.8939 47.2161 36.6532 48.6367 37.7682 49.7516C38.8831 50.8666 40.3037 51.6259 41.8502 51.9336C43.3967 52.2411 44.9997 52.0832 46.4565 51.4798C47.9133 50.8764 49.1584 49.8546 50.0344 48.5435C50.9104 47.2325 51.378 45.6911 51.378 44.1143C51.3747 42.0009 50.5337 39.975 49.0393 38.4805C47.5449 36.9861 45.519 36.1452 43.4055 36.1418ZM43.4055 50.3151C42.1792 50.3151 40.9803 49.9514 39.9606 49.27C38.9409 48.5887 38.146 47.6203 37.6767 46.4873C37.2074 45.3542 37.0846 44.1074 37.3239 42.9046C37.5631 41.7017 38.1537 40.5969 39.0209 39.7297C39.8881 38.8624 40.993 38.2719 42.1958 38.0326C43.3986 37.7934 44.6454 37.9161 45.7785 38.3855C46.9115 38.8548 47.8799 39.6496 48.5613 40.6693C49.2426 41.6891 49.6063 42.8879 49.6063 44.1143C49.6044 45.7583 48.9506 47.3344 47.7881 48.4968C46.6256 49.6593 45.0495 50.3132 43.4055 50.3151Z" fill="white"/>
<path d="M41.6336 45.519L39.6024 43.4878L38.3499 44.7403L41.0073 47.3978C41.1734 47.5639 41.3987 47.6572 41.6336 47.6572C41.8685 47.6572 42.0938 47.5639 42.2599 47.3978L47.5748 42.0829L46.3223 40.8303L41.6336 45.519Z" fill="white"/>
<path d="M44.2913 17.5393H51.3779V19.311H44.2913V17.5393Z" fill="white"/>
<path d="M44.2913 22.8542H51.3779V24.6259H44.2913V22.8542Z" fill="white"/>
<path d="M44.2913 28.1692H51.3779V29.9408H44.2913V28.1692Z" fill="white"/>
</svg>
